# xmcd
# 
# Track frame offsets:
#     150
#     21908
#     51723
#     75331
#     134598
#     161374
#     216832
# 
# Disc length: 3713
# 
# Revision: 3
# Processed by: cddbd v1.5.2PL0 Copyright (c) Steve Scherf et al.
# Submitted via: fre:ac v1.0.31
# 
DISCID=5d0e7f07
DTITLE=Hans Zimmer - Live In Prague CD2
DYEAR=2017
DGENRE=Soundtrack
TTITLE0=What Are You Going To Do When You're Not Saving The World [Man Of Steel] [live]
TTITLE1=Journey To The Line [The Thin Red Line] [live]
TTITLE2=The Electro Suite [Themes From The Amazing Spider-Man 2] [live]
TTITLE3=The Dark Knight Trilogy: Why So Serious? - Like A Dog Chasing Cars - Why Do We Fall? - Introduce A Little Anarchy - The Fire Rises [live]
TTITLE4=Aurora [live]
TTITLE5=Interstellar: Day One - Cornfield Chase - No Time For Caution - Stay [live]
TTITLE6=Inception: Half Remembered Dream - Dream Is Collapsing - Mombasa - Time [live]
EXTD=YEAR: 2017
EXTT0=
EXTT1=
EXTT2=
EXTT3=
EXTT4=
EXTT5=
EXTT6=
PLAYORDER=
